<?xml version="1.0" encoding="UTF-8" standalone="no"?>
<!-- Created with Inkscape (http://www.inkscape.org/) -->

<svg
   xmlns:dc="http://purl.org/dc/elements/1.1/"
   xmlns:cc="http://creativecommons.org/ns#"
   xmlns:rdf="http://www.w3.org/1999/02/22-rdf-syntax-ns#"
   xmlns:svg="http://www.w3.org/2000/svg"
   xmlns="http://www.w3.org/2000/svg"
   xmlns:sodipodi="http://sodipodi.sourceforge.net/DTD/sodipodi-0.dtd"
   xmlns:inkscape="http://www.inkscape.org/namespaces/inkscape"
   width="75.084373mm"
   height="75.084373mm"
   viewBox="0 0 266.04699 266.04699"
   id="svg2"
   version="1.1"
   inkscape:version="0.91 r13725"
   sodipodi:docname="raspbed-icon-white.svg"
   inkscape:export-filename="/home/john/workspace/Raspbed/QRaspbed/images/icon/icon-white-128.png"
   inkscape:export-xdpi="43.300621"
   inkscape:export-ydpi="43.300621">
  <defs
     id="defs4" />
  <sodipodi:namedview
     id="base"
     pagecolor="#ffffff"
     bordercolor="#666666"
     borderopacity="1.0"
     inkscape:pageopacity="0"
     inkscape:pageshadow="2"
     inkscape:zoom="7.1199417"
     inkscape:cx="133.18936"
     inkscape:cy="132.85764"
     inkscape:document-units="px"
     inkscape:current-layer="layer3"
     showgrid="false"
     showborder="true"
     showguides="true"
     inkscape:guide-bbox="true"
     inkscape:window-width="2564"
     inkscape:window-height="1572"
     inkscape:window-x="962"
     inkscape:window-y="446"
     inkscape:window-maximized="0"
     fit-margin-top="0"
     fit-margin-left="0"
     fit-margin-right="0"
     fit-margin-bottom="0">
    <inkscape:grid
       type="xygrid"
       id="grid4318"
       originx="-141.37655"
       originy="-284.86753" />
  </sodipodi:namedview>
  <metadata
     id="metadata7">
    <rdf:RDF>
      <cc:Work
         rdf:about="">
        <dc:format>image/svg+xml</dc:format>
        <dc:type
           rdf:resource="http://purl.org/dc/dcmitype/StillImage" />
        <dc:title></dc:title>
      </cc:Work>
    </rdf:RDF>
  </metadata>
  <g
     inkscape:label="Layer 1"
     inkscape:groupmode="layer"
     id="layer1"
     style="display:inline"
     transform="translate(-141.37656,-501.44766)">
    <g
       inkscape:groupmode="layer"
       id="layer4"
       inkscape:label="border"
       style="display:inline;opacity:1" />
    <g
       inkscape:groupmode="layer"
       id="layer2"
       inkscape:label="bed"
       style="display:inline" />
    <g
       inkscape:groupmode="layer"
       id="layer3"
       inkscape:label="arrow"
       style="display:inline">
      <rect
         style="display:inline;fill:#ffffff;fill-opacity:1;stroke:#000000;stroke-width:6;stroke-linecap:round;stroke-linejoin:miter;stroke-miterlimit:4;stroke-dasharray:none;stroke-opacity:1"
         id="rect4160"
         width="10.98663"
         height="153.42044"
         x="146.87665"
         y="557.76093"
         ry="5.4933152" />
      <rect
         style="display:inline;fill:#ffffff;fill-opacity:1;stroke:#000000;stroke-width:6;stroke-linecap:round;stroke-linejoin:miter;stroke-miterlimit:4;stroke-dasharray:none;stroke-opacity:1"
         id="rect4160-3"
         width="11.650121"
         height="114.45358"
         x="390.60507"
         y="597.05951"
         ry="4.0980825" />
      <rect
         style="display:inline;fill:#000000;fill-opacity:1;stroke:#000000;stroke-width:6.86126995;stroke-linecap:butt;stroke-linejoin:miter;stroke-miterlimit:4;stroke-dasharray:none;stroke-opacity:1"
         id="rect4264"
         width="229.65881"
         height="15.419536"
         x="159.76682"
         y="646.77277"
         ry="0" />
      <path
         style="fill:#ffffff;fill-opacity:1;stroke:#000000;stroke-width:6.72633266;stroke-miterlimit:4;stroke-dasharray:none;stroke-opacity:1"
         d="m 185.61459,565.2831 c -9.79859,0 -17.68693,7.88836 -17.68693,17.68691 0,9.79854 7.88834,17.68691 17.68693,17.68691 9.79855,0 17.68691,-7.88837 17.68691,-17.68691 0,-9.79855 -7.88836,-17.68691 -17.68691,-17.68691 z"
         id="path4184"
         inkscape:connector-curvature="0"
         inkscape:export-filename="/home/john/workspace/Raspbed/QRaspbed/images/flatten-icon.png"
         inkscape:export-xdpi="24.849876"
         inkscape:export-ydpi="24.849876" />
      <path
         inkscape:connector-curvature="0"
         style="fill:#ffffff;fill-opacity:1;stroke:#000000;stroke-width:6;stroke-miterlimit:4;stroke-dasharray:none;stroke-opacity:1"
         d="m 178.37309,607.37504 c -7.26969,0 -13.12233,5.55976 -13.12233,12.46564 l 0,6.83409 c 0,6.9059 5.85265,12.46564 13.12233,12.46564 l 79.7898,0 c 7.26967,0 13.12234,-5.55974 13.12234,-12.46564 l 0,-6.83409 c 0,-6.90588 -5.85267,-12.46564 -13.12234,-12.46564 l -79.7898,0 z"
         id="path4271"
         inkscape:export-filename="/home/john/workspace/Raspbed/QRaspbed/images/flatten-icon.png"
         inkscape:export-xdpi="24.849876"
         inkscape:export-ydpi="24.849876" />
      <path
         id="path4284-7"
         style="display:inline;fill:#ffffff;fill-opacity:1;stroke:#000000;stroke-width:6;stroke-linecap:butt;stroke-linejoin:miter;stroke-miterlimit:4;stroke-dasharray:none;stroke-opacity:1"
         d="m 211.38502,584.69573 0,15.19971 17.31658,0 c -9.59412,0 -17.31658,-6.77844 -17.31658,-15.19971 z m 163.01015,0 c 0,8.42127 -7.72246,15.19971 -17.31657,15.19971 l 17.31657,0 0,-15.19971 z m -145.69224,-15.20201 128.37432,0 c 9.59412,0 17.31791,6.77958 17.31791,15.20085 0,8.42129 -7.72379,15.20087 -17.31791,15.20087 l -128.37432,0 c -9.59412,0 -17.31791,-6.77958 -17.31791,-15.20087 0,-8.42127 7.72379,-15.20085 17.31791,-15.20085 z m -17.31791,0 0,15.20166 c 0,-8.42127 7.72246,-15.20166 17.31658,-15.20166 l -17.31658,0 z"
         inkscape:connector-curvature="0" />
      <rect
         style="fill:#ffffff;fill-opacity:1;stroke:none;stroke-width:6.97800016;stroke-linecap:butt;stroke-linejoin:miter;stroke-miterlimit:4;stroke-dasharray:none;stroke-opacity:1"
         id="rect4363"
         width="5.4088755"
         height="241.39615"
         x="651.77808"
         y="-394.80496"
         ry="0"
         transform="matrix(0,1,-1,0,0,0)" />
      <path
         inkscape:export-ydpi="24.849876"
         inkscape:export-xdpi="24.849876"
         inkscape:export-filename="/home/john/workspace/Raspbed/QRaspbed/images/flatten-icon.png"
         id="path4942"
         d="m 289.65426,607.37504 c -7.26969,0 -13.12233,5.55976 -13.12233,12.46564 l 0,6.83409 c 0,6.9059 5.85265,12.46564 13.12233,12.46564 l 79.7898,0 c 7.26967,0 13.12234,-5.55974 13.12234,-12.46564 l 0,-6.83409 c 0,-6.90588 -5.85267,-12.46564 -13.12234,-12.46564 l -79.7898,0 z"
         style="fill:#ffffff;fill-opacity:1;stroke:#000000;stroke-width:6;stroke-miterlimit:4;stroke-dasharray:none;stroke-opacity:1"
         inkscape:connector-curvature="0" />
      <rect
         style="fill:#ffffff;fill-opacity:1;stroke:none;stroke-width:6;stroke-miterlimit:4;stroke-dasharray:none;stroke-opacity:1"
         id="rect4944"
         width="17.591516"
         height="24.392733"
         x="213.52155"
         y="572.49768"
         ry="0" />
      <rect
         ry="0"
         y="584.20477"
         x="353.78928"
         height="12.685671"
         width="17.591516"
         id="rect4974"
         style="fill:#ffffff;fill-opacity:1;stroke:none;stroke-width:6;stroke-miterlimit:4;stroke-dasharray:none;stroke-opacity:1" />
    </g>
  </g>
</svg>
