<?xml version="1.0" encoding="UTF-8" standalone="no"?>
<!-- Created with Inkscape (http://www.inkscape.org/) -->

<svg
   xmlns:dc="http://purl.org/dc/elements/1.1/"
   xmlns:cc="http://creativecommons.org/ns#"
   xmlns:rdf="http://www.w3.org/1999/02/22-rdf-syntax-ns#"
   xmlns:svg="http://www.w3.org/2000/svg"
   xmlns="http://www.w3.org/2000/svg"
   xmlns:sodipodi="http://sodipodi.sourceforge.net/DTD/sodipodi-0.dtd"
   xmlns:inkscape="http://www.inkscape.org/namespaces/inkscape"
   width="210mm"
   height="297mm"
   viewBox="0 0 744.09448819 1052.3622047"
   id="svg2"
   version="1.1"
   inkscape:version="0.91 r13725"
   sodipodi:docname="trend-icon.svg"
   inkscape:export-filename="/home/john/workspace/Raspbed/QRaspbed/images/trend-icon2.png"
   inkscape:export-xdpi="24.849876"
   inkscape:export-ydpi="24.849876">
  <defs
     id="defs4" />
  <sodipodi:namedview
     id="base"
     pagecolor="#ffffff"
     bordercolor="#666666"
     borderopacity="1.0"
     inkscape:pageopacity="0"
     inkscape:pageshadow="2"
     inkscape:zoom="3.1900494"
     inkscape:cx="329.29928"
     inkscape:cy="488.64613"
     inkscape:document-units="px"
     inkscape:current-layer="layer3"
     showgrid="false"
     showborder="false"
     showguides="true"
     inkscape:guide-bbox="true"
     inkscape:window-width="2854"
     inkscape:window-height="1603"
     inkscape:window-x="566"
     inkscape:window-y="415"
     inkscape:window-maximized="0">
    <inkscape:grid
       type="xygrid"
       id="grid4318" />
  </sodipodi:namedview>
  <metadata
     id="metadata7">
    <rdf:RDF>
      <cc:Work
         rdf:about="">
        <dc:format>image/svg+xml</dc:format>
        <dc:type
           rdf:resource="http://purl.org/dc/dcmitype/StillImage" />
        <dc:title></dc:title>
      </cc:Work>
    </rdf:RDF>
  </metadata>
  <g
     inkscape:label="Layer 1"
     inkscape:groupmode="layer"
     id="layer1"
     style="display:inline">
    <g
       inkscape:groupmode="layer"
       id="layer4"
       inkscape:label="Border"
       style="display:inline" />
    <g
       inkscape:groupmode="layer"
       id="layer2"
       inkscape:label="bed up"
       style="display:none" />
    <g
       inkscape:label="bed trend"
       id="g4273"
       inkscape:groupmode="layer"
       style="display:none" />
    <g
       inkscape:groupmode="layer"
       id="g4279"
       inkscape:label="bed feet"
       style="display:none" />
    <g
       inkscape:label="bed flat"
       id="g4267"
       inkscape:groupmode="layer"
       style="display:none" />
    <g
       inkscape:groupmode="layer"
       id="layer3"
       inkscape:label="arrow"
       style="display:inline">
      <path
         inkscape:connector-curvature="0"
         id="ellipse4306"
         style="display:inline;fill:#ffffff;fill-opacity:1;stroke:#000000;stroke-width:2.49935579;stroke-miterlimit:4;stroke-dasharray:none;stroke-opacity:1"
         d="M 611.04829,563.71599 A 281.74939,177.92321 0 0 1 329.29891,741.6392 281.74939,177.92321 0 0 1 47.549523,563.71599 281.74939,177.92321 0 0 1 329.29891,385.79278 281.74939,177.92321 0 0 1 611.04829,563.71599 Z M 329.29928,349.92206 c -79.05931,8e-5 -157.73693,20.00758 -216.60277,57.18079 -58.865845,37.1732 -99.049714,94.29817 -99.050549,156.61197 -5.55e-4,62.31435 40.18215,119.44064 99.048169,156.61448 58.86603,37.17384 137.54512,57.18071 216.60515,57.18079 79.06002,-8e-5 157.73911,-20.00695 216.60514,-57.18079 58.86602,-37.17384 99.04874,-94.30013 99.04818,-156.61448 -8.4e-4,-62.3138 -40.18471,-119.43877 -99.05056,-156.61197 C 487.03621,369.92964 408.3586,349.92213 329.29928,349.92206 Z"
         inkscape:export-xdpi="24.849876"
         inkscape:export-ydpi="24.849876"
         inkscape:export-filename="/home/john/workspace/Raspbed/QRaspbed/images/trend-icon2.png" />
      <path
         style="fill:#ffffff;fill-opacity:1;stroke:#000000;stroke-width:2.49935579;stroke-miterlimit:4;stroke-dasharray:none;stroke-opacity:1"
         d="m 210.85741,482.91474 -64.43198,68.16955 18.87186,0 0,94.76403 91.12024,0 0,-94.76403 18.87185,0 z"
         id="rect4161"
         inkscape:connector-curvature="0"
         inkscape:export-xdpi="24.849876"
         inkscape:export-ydpi="24.849876"
         inkscape:export-filename="/home/john/workspace/Raspbed/QRaspbed/images/trend-icon2.png"
         sodipodi:nodetypes="cccccccc" />
      <g
         id="g4233"
         transform="matrix(0.8390171,0.54410505,-0.54410505,0.8390171,374.91407,-138.97618)"
         inkscape:export-filename="/home/john/workspace/Raspbed/QRaspbed/images/trend-icon2.png"
         inkscape:export-xdpi="24.849876"
         inkscape:export-ydpi="24.849876">
        <g
           inkscape:export-ydpi="24.849876"
           inkscape:export-xdpi="24.849876"
           inkscape:export-filename="/home/john/workspace/Raspbed/QRaspbed/images/bed-down-icon.png"
           transform="matrix(1.25,0,0,1.25,-105.57984,-169.97674)"
           id="g4188">
          <path
             style="fill:#ffffff;fill-opacity:1;stroke:#000000;stroke-width:2;stroke-miterlimit:4;stroke-dasharray:none;stroke-opacity:1"
             d="m 344.89491,555.036 c -8.41345,0 -15.18671,7.16618 -15.18671,16.06766 0,8.90148 6.77326,16.06766 15.18671,16.06766 8.41343,0 15.1867,-7.16618 15.1867,-16.06766 0,-8.90148 -6.77327,-16.06766 -15.1867,-16.06766 z"
             id="path4184"
             inkscape:connector-curvature="0" />
          <path
             inkscape:connector-curvature="0"
             style="fill:#ffffff;fill-opacity:1;stroke:#000000;stroke-width:2;stroke-miterlimit:4;stroke-dasharray:none;stroke-opacity:1"
             d="m 341.12195,588.70947 c -6.32315,0 -11.41375,5.3859 -11.41375,12.07585 l 0,6.62037 c 0,6.68995 5.09061,12.07585 11.41375,12.07585 l 69.40087,0 c 6.32315,0 11.41376,-5.3859 11.41376,-12.07585 l 0,-6.62037 c 0,-6.68995 -5.09061,-12.07585 -11.41376,-12.07585 l -69.40087,0 z"
             id="path4271" />
          <path
             id="path4186"
             d="m 434.11593,588.70947 c -6.32315,0 -11.41375,5.3859 -11.41375,12.07585 l 0,6.62037 c 0,6.68995 5.09061,12.07585 11.41375,12.07585 l 69.40087,0 c 6.32315,0 11.41376,-5.3859 11.41376,-12.07585 l 0,-6.62037 c 0,-6.68995 -5.09061,-12.07585 -11.41376,-12.07585 l -69.40087,0 z"
             style="fill:#ffffff;fill-opacity:1;stroke:#000000;stroke-width:2;stroke-miterlimit:4;stroke-dasharray:none;stroke-opacity:1"
             inkscape:connector-curvature="0" />
        </g>
      </g>
      <path
         inkscape:export-filename="/home/john/workspace/Raspbed/QRaspbed/images/trend-icon2.png"
         inkscape:export-ydpi="24.849876"
         inkscape:export-xdpi="24.849876"
         inkscape:connector-curvature="0"
         id="path4239"
         d="m 350.15263,567.88347 -36.29123,11.67209 9.05334,6.2878 -37.41152,53.86613 19.91981,13.83485 37.41151,-53.86613 9.05398,6.28824 z"
         style="fill:#ffffff;fill-opacity:1;stroke:#000000;stroke-width:1.07269812;stroke-miterlimit:4;stroke-dasharray:none;stroke-opacity:1"
         sodipodi:nodetypes="cccccccc" />
    </g>
  </g>
</svg>
